<?xml version="1.0" encoding="UTF-8"?>
<!DOCTYPE svg PUBLIC "-//W3C//DTD SVG 1.1//EN" "http://www.w3.org/Graphics/SVG/1.1/DTD/svg11.dtd">
<svg xmlns="http://www.w3.org/2000/svg" version="1.1" width="650px" height="195px" style="shape-rendering:geometricPrecision; text-rendering:geometricPrecision; image-rendering:optimizeQuality; fill-rule:evenodd; clip-rule:evenodd" xmlns:xlink="http://www.w3.org/1999/xlink">
<g><path style="opacity:0.967" fill="#fefffe" d="M 95.5,-0.5 C 151.167,-0.5 206.833,-0.5 262.5,-0.5C 315.672,4.16537 347.172,32.832 357,85.5C 360.068,129.541 342.568,162.374 304.5,184C 291.372,190.119 277.705,193.619 263.5,194.5C 207.167,194.5 150.833,194.5 94.5,194.5C 37.8848,187.885 6.21809,156.218 -0.5,99.5C -0.5,97.8333 -0.5,96.1667 -0.5,94.5C 6.35284,37.3134 38.3528,5.64671 95.5,-0.5 Z M 176.5,28.5 C 181.781,28.8221 186.781,30.1555 191.5,32.5C 190.167,36.1667 188.833,39.8333 187.5,43.5C 186.833,43.8333 186.167,44.1667 185.5,44.5C 180.759,41.6151 176.259,41.9484 172,45.5C 170.58,52.0496 170.08,58.7163 170.5,65.5C 174.833,65.5 179.167,65.5 183.5,65.5C 183.5,70.5 183.5,75.5 183.5,80.5C 178.833,80.5 174.167,80.5 169.5,80.5C 170.631,100.469 170.797,120.469 170,140.5C 165.263,141.469 160.43,141.803 155.5,141.5C 155.5,121.167 155.5,100.833 155.5,80.5C 153.208,80.7564 151.041,80.4231 149,79.5C 148.501,74.8452 148.334,70.1785 148.5,65.5C 150.833,65.5 153.167,65.5 155.5,65.5C 153.056,52.7479 156.39,41.9146 165.5,33C 169.053,30.8792 172.72,29.3792 176.5,28.5 Z M 59.5,59.5 C 75.9478,57.5601 89.2811,63.0601 99.5,76C 83.4585,91.7074 67.7918,107.707 52.5,124C 52.8198,125.653 53.8198,126.653 55.5,127C 69.3324,130.776 80.8324,127.276 90,116.5C 94.3756,117.68 98.5422,119.347 102.5,121.5C 87.7005,143.201 68.3672,148.368 44.5,137C 23.3094,120.713 19.1427,100.879 32,77.5C 39.2212,68.3199 48.3879,62.3199 59.5,59.5 Z M 217.5,59.5 C 223.245,59.2111 228.912,59.7111 234.5,61C 240.057,63.6092 245.39,66.4425 250.5,69.5C 250.5,68.1667 250.5,66.8333 250.5,65.5C 255.5,65.5 260.5,65.5 265.5,65.5C 265.5,90.8333 265.5,116.167 265.5,141.5C 260.5,141.5 255.5,141.5 250.5,141.5C 250.5,138.833 250.5,136.167 250.5,133.5C 244.715,136.557 238.715,139.39 232.5,142C 211.108,145.054 195.608,136.887 186,117.5C 178.438,88.2867 188.938,68.9534 217.5,59.5 Z M 299.5,61.5 C 316.286,60.4419 326.786,68.1085 331,84.5C 331.5,103.497 331.667,122.497 331.5,141.5C 326.833,141.5 322.167,141.5 317.5,141.5C 317.948,122.778 317.448,104.112 316,85.5C 310.91,76.8649 303.41,74.0316 293.5,77C 290.063,78.1049 287.563,80.2716 286,83.5C 285.667,102.5 285.333,121.5 285,140.5C 280.263,141.469 275.43,141.803 270.5,141.5C 270.5,116.167 270.5,90.8333 270.5,65.5C 275.179,65.3342 279.845,65.5008 284.5,66C 284.854,67.6255 284.854,69.4588 284.5,71.5C 285.552,71.6495 286.552,71.4828 287.5,71C 290.618,66.621 294.618,63.4543 299.5,61.5 Z M 140.5,63.5 C 141.5,63.5 142.5,63.5 143.5,63.5C 143.5,68.5 143.5,73.5 143.5,78.5C 134.089,79.1214 127.589,83.7881 124,92.5C 122.712,108.433 122.045,124.433 122,140.5C 117.263,141.469 112.43,141.803 107.5,141.5C 107.5,116.167 107.5,90.8333 107.5,65.5C 112.5,65.5 117.5,65.5 122.5,65.5C 122.5,68.1667 122.5,70.8333 122.5,73.5C 126.174,72.0182 129.507,69.8515 132.5,67C 135.309,65.9066 137.976,64.7399 140.5,63.5 Z"/></g>
<g><path style="opacity:0.852" fill="#fefffe" d="M 649.5,60.5 C 649.5,62.1667 649.5,63.8333 649.5,65.5C 646.411,70.1206 642.077,71.6206 636.5,70C 631.167,65.3333 631.167,60.6667 636.5,56C 642.175,54.243 646.508,55.743 649.5,60.5 Z"/></g>
<g><path style="opacity:0.904" fill="#fefffe" d="M 444.5,71.5 C 451.799,71.0555 458.299,73.0555 464,77.5C 468.066,76.5363 472.233,76.203 476.5,76.5C 476.5,93.8333 476.5,111.167 476.5,128.5C 472.5,128.5 468.5,128.5 464.5,128.5C 464.657,127.127 464.49,125.793 464,124.5C 448.786,133.018 435.452,130.684 424,117.5C 415.775,101.279 418.608,87.446 432.5,76C 436.432,73.9716 440.432,72.4716 444.5,71.5 Z M 446.5,83.5 C 462.918,86.0776 468.084,95.0776 462,110.5C 455.662,117.797 448.162,119.297 439.5,115C 430.741,108.17 429.241,100.003 435,90.5C 438.263,87.0374 442.097,84.7041 446.5,83.5 Z"/></g>
<g><path style="opacity:0.897" fill="#fefffe" d="M 574.5,71.5 C 583.851,70.7986 592.184,73.2986 599.5,79C 601.01,80.3513 602.01,82.018 602.5,84C 592.543,94.9586 582.209,105.625 571.5,116C 577.287,118.122 582.953,117.789 588.5,115C 593.537,108.381 598.87,108.215 604.5,114.5C 601.17,121.991 595.503,126.825 587.5,129C 569.074,132.211 556.908,125.044 551,107.5C 548.719,88.6565 556.553,76.6565 574.5,71.5 Z M 576.5,83.5 C 579.649,83.2114 582.649,83.7114 585.5,85C 578.319,92.348 570.986,99.5146 563.5,106.5C 561.361,95.1064 565.694,87.4398 576.5,83.5 Z"/></g>
<g><path style="opacity:0.911" fill="#fefffe" d="M 390.5,73.5 C 404.755,71.3662 412.922,77.3662 415,91.5C 415.5,103.829 415.667,116.162 415.5,128.5C 411.5,128.5 407.5,128.5 403.5,128.5C 403.667,116.495 403.5,104.495 403,92.5C 397.118,82.379 390.784,82.0456 384,91.5C 383.5,103.829 383.333,116.162 383.5,128.5C 379.833,128.5 376.167,128.5 372.5,128.5C 372.5,111.167 372.5,93.8333 372.5,76.5C 375.728,76.7006 378.895,76.3672 382,75.5C 383.261,75.7591 384.261,76.4258 385,77.5C 386.812,76.0229 388.645,74.6896 390.5,73.5 Z"/></g>
<g><path style="opacity:0.91" fill="#fefffe" d="M 58.5,74.5 C 64.5092,74.3338 70.5092,74.5005 76.5,75C 77.5171,76.0495 77.6838,77.2161 77,78.5C 65.6254,90.209 53.9588,101.542 42,112.5C 35.945,94.835 41.445,82.1684 58.5,74.5 Z"/></g>
<g><path style="opacity:0.953" fill="#fefffe" d="M 217.5,74.5 C 232.755,71.9589 243.588,77.6256 250,91.5C 254.454,106.727 249.954,118.227 236.5,126C 219.771,131.762 207.271,126.928 199,111.5C 194.072,93.3558 200.238,81.0225 217.5,74.5 Z"/></g>
<g><path style="opacity:0.879" fill="#fefffe" d="M 493.5,74.5 C 501.045,72.8639 506.878,75.1973 511,81.5C 511.494,83.1341 511.66,84.8008 511.5,86.5C 508.479,87.0049 505.479,87.6716 502.5,88.5C 500.896,88.0609 499.396,87.3943 498,86.5C 496.831,87.0085 495.998,87.8419 495.5,89C 498.597,92.3884 502.264,95.0551 506.5,97C 514.931,104.004 516.765,112.504 512,122.5C 505.818,129.443 498.318,131.276 489.5,128C 483.665,125.341 480.998,120.841 481.5,114.5C 485.146,113.717 488.812,113.55 492.5,114C 495.509,118.384 498.675,118.551 502,114.5C 502.667,112.833 502.667,111.167 502,109.5C 496.488,105.743 491.154,101.743 486,97.5C 481.588,87.4583 484.088,79.7916 493.5,74.5 Z"/></g>
<g><path style="opacity:0.878" fill="#fefffe" d="M 529.5,74.5 C 536.916,73.2424 542.749,75.5758 547,81.5C 547.494,83.1341 547.66,84.8008 547.5,86.5C 544.42,86.7477 541.42,87.4144 538.5,88.5C 536.896,88.0609 535.396,87.3943 534,86.5C 530.863,87.9449 530.697,89.7783 533.5,92C 540.233,94.771 545.399,99.271 549,105.5C 552.296,122.871 545.13,130.705 527.5,129C 520.565,126.625 516.899,121.792 516.5,114.5C 519.35,114.364 522.183,114.031 525,113.5C 527.661,114.792 530.328,116.125 533,117.5C 537.051,116.792 538.718,114.459 538,110.5C 533.609,106.388 528.776,102.888 523.5,100C 516.661,89.2895 518.661,80.7895 529.5,74.5 Z"/></g>
<g><path style="opacity:0.888" fill="#fefffe" d="M 629.5,74.5 C 630.833,74.5 632.167,74.5 633.5,74.5C 633.824,78.5546 633.491,82.5546 632.5,86.5C 625.796,88.3707 621.63,92.704 620,99.5C 619.5,109.161 619.334,118.828 619.5,128.5C 615.5,128.5 611.5,128.5 607.5,128.5C 607.5,111.167 607.5,93.8333 607.5,76.5C 611.5,76.5 615.5,76.5 619.5,76.5C 619.343,77.8734 619.51,79.2068 620,80.5C 622.843,77.8373 626.009,75.8373 629.5,74.5 Z"/></g>
<g><path style="opacity:0.958" fill="#fefffe" d="M 634.5,76.5 C 638.5,76.5 642.5,76.5 646.5,76.5C 646.5,93.8333 646.5,111.167 646.5,128.5C 642.833,128.5 639.167,128.5 635.5,128.5C 635.792,111.132 635.458,93.7988 634.5,76.5 Z"/></g>
</svg>
